<svg width="579" height="304" viewBox="0 0 579 304" fill="none" xmlns="http://www.w3.org/2000/svg">
<path d="M136.667 0.278687C85.3333 7.87869 44.9333 42.6787 29.7333 92.412C26.5333 103.212 26.1333 106.012 26.1333 127.479C26.1333 149.212 26.4 151.612 29.7333 162.812C39.8667 196.012 61.0667 222.812 89.8667 239.345C110.533 251.212 127.733 255.479 153.867 255.479C175.333 255.479 191.867 251.879 208.933 243.479C221.467 237.345 238.4 225.079 245.6 217.079C248.4 214.012 250.933 211.479 251.333 211.479C251.733 211.479 252 218.679 252 227.479V243.479H265.733C273.2 243.479 281.6 242.812 284.267 242.145C290.667 240.279 297.2 234.812 299.467 229.212C301.867 223.612 301.867 210.012 299.467 204.279C296 196.012 284.933 190.145 272.4 190.145C269.2 190.145 266.667 189.745 266.667 189.345C266.667 188.945 268.4 184.545 270.533 179.612C278.667 161.345 280.533 151.479 280.667 128.812C280.667 112.812 280.133 105.879 278.133 98.1454C272.4 75.4787 262.267 56.6787 247.467 41.212C221.467 13.612 194.4 1.34535 158 0.145355C148.533 -0.121307 138.933 0.0120239 136.667 0.278687ZM248.4 75.212C228.4 111.079 153.867 240.812 153.333 240.812C152.8 240.812 57.4667 74.812 53.7333 67.0787C53.4667 66.5453 98.2667 66.1454 153.333 66.1454H253.6L248.4 75.212ZM284.267 204.679C288.4 208.279 288.667 209.212 288.667 216.812C288.667 224.412 288.4 225.345 284.267 228.945C280.533 232.279 278.933 232.812 272 232.812H264V216.812V200.812H272C278.933 200.812 280.533 201.345 284.267 204.679Z" fill="#13407B"/>
<path d="M400.667 191.345C395.867 193.479 386.8 202.012 386.667 204.545C386.533 205.079 386 208.012 385.467 211.212C384 218.412 385.867 228.145 389.733 233.745C399.467 248.279 428.533 248.279 438.267 233.745C442.133 228.145 444 218.412 442.533 211.212C442 208.012 441.467 205.079 441.333 204.545C441.333 204.012 439.333 201.345 437.067 198.679C431.2 192.012 423.867 188.812 414 188.812C409.067 188.812 403.867 189.879 400.667 191.345ZM422 201.612C432.933 206.812 433.333 226.679 422.533 232.145C414 236.545 403.2 233.479 399.467 225.612C391.733 209.345 406.133 194.012 422 201.612Z" fill="#F6F6F6"/>
<path d="M308 216.812V243.479H314.667H321.333V216.812V190.145H314.667H308V216.812Z" fill="#F6F6F6"/>
<path d="M329.333 216.812V243.479H335.333H341.2L341.6 224.812L342 206.279L352.667 224.812L363.2 243.479H370.933H378.667V216.812V190.145H372.667H366.8L366.4 209.079L366 228.145L355.333 209.479L344.533 190.812L336.933 190.412L329.333 190.012V216.812Z" fill="#F6F6F6"/>
<path d="M449.333 216.812V243.479H456H462.667V233.479V223.479H467.867C474 223.479 474.933 224.412 478.667 234.545C482 243.345 485.2 245.612 492.4 244.279C497.867 243.212 500.4 240.679 499.2 237.612C498.667 236.145 497.467 235.745 495.333 236.279C492.667 236.945 492 236.279 490.667 231.879C489.733 229.079 488.267 225.479 487.2 223.879C485.467 221.079 485.6 220.679 489.333 218.812C494.267 216.279 496 213.079 496 206.279C496 199.612 491.067 193.479 484.267 191.479C481.6 190.812 472.533 190.145 464.4 190.145H449.333V216.812ZM479.2 200.812C483.733 202.412 485.067 208.012 482 211.479C480.133 213.612 477.867 214.145 471.067 214.145H462.667V206.812V199.479H469.2C472.8 199.479 477.333 200.012 479.2 200.812Z" fill="#F6F6F6"/>
<path d="M501.333 195.479V200.812H509.333H517.333V222.145V243.479H524H530.667V222.145V200.812H538.667H546.667V195.479V190.145H524H501.333V195.479Z" fill="#F6F6F6"/>
<path d="M93.7334 264.812C87.3334 268.679 84.9334 274.279 85.6 284.279C86 290.945 86.8 293.479 89.3334 296.279C98.4 306.012 115.333 305.745 122.533 295.745C126.533 290.012 126.267 286.545 121.333 285.879C118.133 285.345 117.2 285.879 116 288.945C113.067 296.012 101.067 297.345 96.6667 291.079C95.6 289.479 94.6667 285.479 94.6667 282.145C94.6667 274.412 98.1334 270.145 104.4 270.145C109.467 270.145 111.067 271.079 113.2 275.212C114.4 277.612 115.467 278.012 118.4 277.345C123.333 276.145 123.2 276.145 121.333 271.345C117.6 262.545 103.067 259.079 93.7334 264.812Z" fill="#F6F6F6"/>
<path d="M353.2 265.212C344.4 271.079 341.733 281.745 346.667 292.545C352.267 304.945 372.533 307.345 382.267 296.679C388 290.279 388.667 277.745 383.467 269.879C378.267 261.879 361.867 259.345 353.2 265.212ZM373.867 272.679C377.333 276.545 378.533 282.279 376.8 287.479C373.067 299.079 356.133 297.479 353.867 285.345C352.933 280.145 355.2 273.479 358.533 271.479C362.4 269.212 371.333 269.879 373.867 272.679Z" fill="#F6F6F6"/>
<path d="M396.133 265.612C392.8 268.279 392 270.145 392 274.012C392 280.679 395.067 283.212 406.267 285.879C416 288.279 418.667 291.612 413.867 295.079C410 298.012 405.333 297.079 401.333 292.812C398.267 289.612 396.8 288.945 394.133 289.612C389.6 290.679 389.733 293.479 394.4 298.145C398.8 302.412 405.733 304.145 412.933 302.812C418.933 301.745 425.333 295.612 425.333 290.812C425.333 285.612 419.067 280.012 411.867 278.812C403.733 277.479 401.067 275.879 401.6 272.412C402.133 268.279 409.867 267.479 412.267 271.345C414 274.279 418 274.945 421.2 272.945C422.533 272.145 422.667 271.212 421.467 269.079C418.933 264.279 414.4 262.145 407.2 262.145C401.6 262.145 399.333 262.812 396.133 265.612Z" fill="#F6F6F6"/>
<path d="M445.467 265.612C442.133 268.279 441.333 270.145 441.333 274.012C441.333 280.679 444.4 283.212 455.6 285.879C465.333 288.279 468 291.612 463.2 295.079C459.333 298.012 454.667 297.079 450.667 292.812C447.6 289.612 446.133 288.945 443.467 289.612C438.933 290.679 439.067 293.479 443.733 298.145C448.133 302.412 455.067 304.145 462.267 302.812C467.733 301.879 474.667 295.612 474.667 291.612C474.667 284.412 470.4 280.545 460.4 278.679C452.933 277.345 450.4 275.745 450.933 272.412C451.467 268.279 459.2 267.479 461.6 271.345C463.333 274.279 467.333 274.945 470.533 272.945C471.867 272.145 472 271.212 470.8 269.079C468.267 264.279 463.733 262.145 456.533 262.145C450.933 262.145 448.667 262.812 445.467 265.612Z" fill="#F6F6F6"/>
<path d="M549.467 265.612C546.133 268.279 545.333 270.145 545.333 274.012C545.333 280.679 548.4 283.212 559.6 285.879C569.333 288.279 572 291.612 567.2 295.079C563.333 298.012 558.667 297.079 554.667 292.812C551.6 289.612 550.133 288.945 547.467 289.612C545.6 290.012 544 291.079 544 292.012C544 294.945 548.4 299.745 552.8 301.612C566.667 307.479 582.267 297.879 577.467 286.412C575.733 282.145 572.267 280.145 564.4 278.679C556.933 277.345 554.4 275.745 554.933 272.412C555.467 268.279 563.2 267.479 565.6 271.345C567.333 274.279 571.333 274.945 574.533 272.945C575.867 272.145 576 271.212 574.8 269.079C572.267 264.279 567.733 262.145 560.533 262.145C554.933 262.145 552.667 262.812 549.467 265.612Z" fill="#F6F6F6"/>
<path d="M0 282.812V302.145H4H8V289.212C8 281.345 8.53333 276.812 9.2 277.479C9.86667 278.279 12.5333 283.879 15.0667 290.145C19.3333 300.545 20.1333 301.479 23.7333 301.879C27.6 302.279 27.8667 302.012 32.8 289.212L38 276.279L38.4 289.212L38.8 302.145H43.3333H48V282.812V263.479H41.4667H35.0667L29.8667 276.812C27.0667 284.145 24.2667 290.145 23.8667 290.145C23.4667 290.145 20.6667 284.145 17.8667 276.812L12.6667 263.479H6.4H0V282.812Z" fill="#F6F6F6"/>
<path d="M53.3333 282.812V302.145H67.3333H81.3333V298.145V294.145H72H62.6667V289.479V284.812H70.6667C78.2667 284.812 78.6667 284.679 78.6667 281.479C78.6667 278.279 78.2667 278.145 70.6667 278.145H62.6667V274.145V270.145H72C81.0667 270.145 81.3333 270.012 81.3333 266.812V263.479H67.3333H53.3333V282.812Z" fill="#F6F6F6"/>
<path d="M140.667 265.079C140.4 266.012 137.333 274.279 134 283.345C130.667 292.545 128 300.412 128 301.079C128 301.612 130 302.145 132.533 302.145C136.4 302.145 137.333 301.479 138.533 298.012C139.867 294.145 140.133 294.012 147.6 294.412C154.533 294.812 155.333 295.079 156 298.145C156.667 300.812 157.733 301.612 161.733 301.879C164.4 302.145 166.667 302.012 166.667 301.745C166.667 301.079 155.867 270.412 154 265.745C152.8 262.945 141.6 262.412 140.667 265.079ZM150.4 279.479L153.2 287.479H147.333H141.467L144.267 279.479C145.733 275.079 147.067 271.479 147.333 271.479C147.6 271.479 148.933 275.079 150.4 279.479Z" fill="#F6F6F6"/>
<path d="M170.667 282.812V302.145H175.333H180V288.412V274.812L187.733 288.412L195.333 302.145H201.067H206.667V282.812V263.479H202H197.467L197.067 276.279L196.667 289.079L189.467 276.279L182.133 263.479H176.4H170.667V282.812Z" fill="#F6F6F6"/>
<path d="M213.333 282.812V302.145H218H222.667V282.812V263.479H218H213.333V282.812Z" fill="#F6F6F6"/>
<path d="M226.667 266.812C226.667 269.879 227.067 270.012 236.667 270.412L246.667 270.812L236.667 282.145C228.667 291.212 226.667 294.279 226.667 297.745V302.145H242.8H258.8L258.4 298.412C258 294.945 257.733 294.812 248.4 294.412C243.067 294.145 238.667 293.745 238.667 293.212C238.667 292.812 242.933 287.879 248 282.145C255.333 274.012 257.333 270.945 257.333 267.612V263.479H242H226.667V266.812Z" fill="#F6F6F6"/>
<path d="M272.933 265.745C272.533 267.079 269.467 275.745 266.133 285.079L260 302.145H265.2C269.867 302.145 270.4 301.745 271.2 298.145C271.867 294.279 272.133 294.145 279.867 294.145C287.6 294.145 287.867 294.279 288.667 298.145C289.467 301.745 290 302.145 294.667 302.145H299.867L295.067 289.079C292.533 282.012 289.333 273.345 288.267 269.745L286.133 263.479H279.867C275.067 263.479 273.467 264.012 272.933 265.745ZM283.2 280.012C284.4 283.612 285.333 286.812 285.333 287.079C285.333 287.345 282.933 287.479 280 287.479C277.067 287.479 274.667 287.079 274.667 286.545C274.667 283.745 279.333 271.612 280.133 272.412C280.533 273.079 282 276.412 283.2 280.012Z" fill="#F6F6F6"/>
<path d="M302.667 282.812V302.145H313.733C332.267 302.012 340 296.412 340 282.812C340 275.212 337.2 269.479 331.6 266.145C328.133 264.012 324.933 263.479 315.067 263.479H302.667V282.812ZM328.267 274.145C331.6 278.145 331.333 286.279 327.867 290.679C325.6 293.612 324.133 294.145 318.533 294.145H312V282.012V269.745L318.933 270.412C324 270.945 326.533 272.012 328.267 274.145Z" fill="#F6F6F6"/>
<path d="M251.667 216.479V244.479H266.488C291.31 244.286 301.667 236.175 301.667 216.479C301.667 205.472 297.917 197.168 290.417 192.341C285.774 189.251 281.488 188.479 268.274 188.479H251.667V216.479ZM285.167 205.479C288.881 211.53 290.06 221.499 285.417 227.872C282.381 232.12 280.417 232.892 272.917 232.892H264.167V215.32V200.479H277.667C283.381 203.437 281.917 202.979 285.167 205.479Z" fill="#F6F6F6"/>
<path d="M502 265.079C501.733 266.012 498.667 274.279 495.333 283.345C492 292.545 489.333 300.412 489.333 301.079C489.333 301.612 491.333 302.145 493.867 302.145C497.733 302.145 498.667 301.479 499.867 298.145C501.067 294.279 501.6 294.145 508.667 294.145C515.733 294.145 516.267 294.279 517.467 298.145C518.667 301.479 519.6 302.145 523.467 302.145C526 302.145 528 301.879 528 301.612C528 301.079 516.933 270.012 515.333 265.745C514.133 262.945 502.933 262.412 502 265.079ZM511.733 279.479L514.533 287.479H508.667H502.8L505.6 279.479C507.067 275.079 508.4 271.479 508.667 271.479C508.933 271.479 510.267 275.079 511.733 279.479Z" fill="#F6F6F6"/>
<path d="M478.667 294.812C476 298.145 477.6 301.479 482 301.479C484.8 301.479 486.133 300.812 486.4 299.079C486.933 296.279 484.533 292.812 482 292.812C481.067 292.812 479.6 293.745 478.667 294.812Z" fill="#F6F6F6"/>
<path d="M535.696 293.479C533 293.464 530.846 296.833 531.926 299.304C533.151 302.107 538.492 303.331 539.592 300.476C539.741 300.091 539.835 299.614 539.897 299.025C539.897 295.719 537.945 293.491 535.696 293.479Z" fill="#F6F6F6"/>
</svg>
