<svg width="255" height="256" viewBox="0 0 255 256" fill="none" xmlns="http://www.w3.org/2000/svg">
<path d="M110.533 0.278687C59.2 7.87869 18.8 42.6787 3.6 92.412C0.4 103.212 0 106.012 0 127.479C0 149.212 0.266667 151.612 3.6 162.812C13.7333 196.012 34.9333 222.812 63.7333 239.345C84.4 251.212 101.6 255.479 127.733 255.479C149.2 255.479 165.733 251.879 182.8 243.479C195.333 237.345 212.267 225.079 219.467 217.079C222.267 214.012 224.8 211.479 225.2 211.479C225.6 211.479 232.3 199.679 232.3 208.479L234.5 198.5C231.833 199.167 241.967 198.5 234.5 198.5C240.9 196.633 234.733 204.1 237 198.5C239.4 192.9 241.2 200.212 238.8 194.479C235.333 186.212 258.8 190.145 246.267 190.145C243.067 190.145 240.533 189.745 240.533 189.345C240.533 188.945 242.267 184.545 244.4 179.612C252.533 161.345 254.4 151.479 254.533 128.812C254.533 112.812 254 105.879 252 98.1454C246.267 75.4787 236.133 56.6787 221.333 41.212C195.333 13.612 168.267 1.34536 131.867 0.145355C122.4 -0.121311 112.8 0.0120198 110.533 0.278687ZM222.267 75.212C202.267 111.079 127.733 240.812 127.2 240.812C126.667 240.812 31.3333 74.812 27.6 67.0787C27.3333 66.5454 72.1333 66.1454 127.2 66.1454H227.467L222.267 75.212ZM237.867 197.5C242 201.1 234.5 190.9 234.5 198.5C238.633 194.9 234.5 206.1 234.5 198.5C241.433 198.5 230.767 201.833 234.5 198.5H237L237.867 197.5C234.133 194.167 244.8 197.5 237.867 197.5Z" fill="#13407B"/>
</svg>
